<mxfile host="app.diagrams.net" agent="Mozilla/5.0 (Windows NT 10.0; Win64; x64) AppleWebKit/537.36 (KHTML, like Gecko) Chrome/140.0.0.0 Safari/537.36" version="28.2.5">
  <diagram name="Página-1" id="_a160yBw-XByxBJMrZp7">
    <mxGraphModel dx="1741" dy="454" grid="1" gridSize="10" guides="1" tooltips="1" connect="1" arrows="1" fold="1" page="1" pageScale="1" pageWidth="827" pageHeight="1169" math="0" shadow="0">
      <root>
        <mxCell id="0" />
        <mxCell id="1" parent="0" />
        <mxCell id="BI5MkdXVmG4Qt5VkmnoV-76" style="rounded=0;orthogonalLoop=1;jettySize=auto;html=1;exitX=0.5;exitY=1;exitDx=0;exitDy=0;entryX=0.5;entryY=0;entryDx=0;entryDy=0;" edge="1" parent="1" source="BI5MkdXVmG4Qt5VkmnoV-1" target="BI5MkdXVmG4Qt5VkmnoV-68">
          <mxGeometry relative="1" as="geometry" />
        </mxCell>
        <mxCell id="BI5MkdXVmG4Qt5VkmnoV-1" value="Início" style="ellipse;whiteSpace=wrap;html=1;" vertex="1" parent="1">
          <mxGeometry x="360" y="40" width="40" height="40" as="geometry" />
        </mxCell>
        <mxCell id="BI5MkdXVmG4Qt5VkmnoV-12" style="rounded=0;orthogonalLoop=1;jettySize=auto;html=1;entryX=0.5;entryY=0;entryDx=0;entryDy=0;" edge="1" source="BI5MkdXVmG4Qt5VkmnoV-15" target="BI5MkdXVmG4Qt5VkmnoV-18" parent="1">
          <mxGeometry relative="1" as="geometry" />
        </mxCell>
        <mxCell id="BI5MkdXVmG4Qt5VkmnoV-15" value="Início" style="ellipse;whiteSpace=wrap;html=1;" vertex="1" parent="1">
          <mxGeometry x="400" y="480" width="40" height="40" as="geometry" />
        </mxCell>
        <mxCell id="BI5MkdXVmG4Qt5VkmnoV-17" style="rounded=0;orthogonalLoop=1;jettySize=auto;html=1;entryX=0.5;entryY=0;entryDx=0;entryDy=0;exitX=0.5;exitY=1;exitDx=0;exitDy=0;" edge="1" source="BI5MkdXVmG4Qt5VkmnoV-18" target="BI5MkdXVmG4Qt5VkmnoV-20" parent="1">
          <mxGeometry relative="1" as="geometry" />
        </mxCell>
        <mxCell id="BI5MkdXVmG4Qt5VkmnoV-56" style="rounded=0;orthogonalLoop=1;jettySize=auto;html=1;exitX=0.5;exitY=1;exitDx=0;exitDy=0;entryX=0.5;entryY=0;entryDx=0;entryDy=0;" edge="1" parent="1" source="BI5MkdXVmG4Qt5VkmnoV-18" target="BI5MkdXVmG4Qt5VkmnoV-55">
          <mxGeometry relative="1" as="geometry" />
        </mxCell>
        <mxCell id="BI5MkdXVmG4Qt5VkmnoV-18" value="&lt;font style=&quot;font-size: 10px;&quot;&gt;X&amp;gt;100&lt;/font&gt;" style="ellipse;whiteSpace=wrap;html=1;" vertex="1" parent="1">
          <mxGeometry x="400" y="560" width="40" height="40" as="geometry" />
        </mxCell>
        <mxCell id="BI5MkdXVmG4Qt5VkmnoV-63" style="rounded=0;orthogonalLoop=1;jettySize=auto;html=1;exitX=0.5;exitY=1;exitDx=0;exitDy=0;entryX=0;entryY=0;entryDx=0;entryDy=0;" edge="1" parent="1" source="BI5MkdXVmG4Qt5VkmnoV-20" target="BI5MkdXVmG4Qt5VkmnoV-62">
          <mxGeometry relative="1" as="geometry" />
        </mxCell>
        <mxCell id="BI5MkdXVmG4Qt5VkmnoV-20" value="Alto" style="ellipse;whiteSpace=wrap;html=1;" vertex="1" parent="1">
          <mxGeometry x="360" y="640" width="40" height="40" as="geometry" />
        </mxCell>
        <mxCell id="BI5MkdXVmG4Qt5VkmnoV-23" value="&lt;div&gt;def classificar(x):&amp;nbsp;&lt;/div&gt;&lt;div&gt;if x &amp;gt; 100:&amp;nbsp;&lt;/div&gt;&lt;div&gt;&lt;span style=&quot;white-space: pre;&quot;&gt;&#x9;&lt;/span&gt;&lt;span style=&quot;white-space: pre;&quot;&gt;&#x9;&lt;/span&gt;return &quot;Alto&quot;&amp;nbsp;&lt;/div&gt;&lt;div&gt;if x &amp;gt; 50:&amp;nbsp;&lt;/div&gt;&lt;div&gt;&lt;span style=&quot;white-space: pre;&quot;&gt;&#x9;&lt;/span&gt;&lt;span style=&quot;white-space: pre;&quot;&gt;&#x9;&lt;/span&gt;&lt;span style=&quot;white-space: pre;&quot;&gt;&#x9;&lt;/span&gt;return &quot;Médio&quot;&amp;nbsp;&lt;/div&gt;&lt;div&gt;&lt;span style=&quot;white-space: pre;&quot;&gt;&#x9;&lt;/span&gt;return &quot;Baixo&quot;&amp;nbsp;&lt;/div&gt;" style="text;html=1;align=center;verticalAlign=middle;resizable=0;points=[];autosize=1;strokeColor=none;fillColor=none;" vertex="1" parent="1">
          <mxGeometry x="530" y="500" width="180" height="100" as="geometry" />
        </mxCell>
        <mxCell id="BI5MkdXVmG4Qt5VkmnoV-33" value="" style="whiteSpace=wrap;html=1;fillColor=#0000FF;" vertex="1" parent="1">
          <mxGeometry x="95" y="1090" width="120" height="60" as="geometry" />
        </mxCell>
        <mxCell id="BI5MkdXVmG4Qt5VkmnoV-35" value="" style="whiteSpace=wrap;html=1;fillColor=#0000FF;" vertex="1" parent="1">
          <mxGeometry x="-25" y="1440" width="120" height="60" as="geometry" />
        </mxCell>
        <mxCell id="BI5MkdXVmG4Qt5VkmnoV-36" value="" style="whiteSpace=wrap;html=1;fillColor=#0000FF;" vertex="1" parent="1">
          <mxGeometry x="595" y="1110" width="120" height="60" as="geometry" />
        </mxCell>
        <mxCell id="BI5MkdXVmG4Qt5VkmnoV-60" style="rounded=0;orthogonalLoop=1;jettySize=auto;html=1;exitX=0.5;exitY=1;exitDx=0;exitDy=0;entryX=0.5;entryY=0;entryDx=0;entryDy=0;" edge="1" parent="1" source="BI5MkdXVmG4Qt5VkmnoV-55" target="BI5MkdXVmG4Qt5VkmnoV-58">
          <mxGeometry relative="1" as="geometry" />
        </mxCell>
        <mxCell id="BI5MkdXVmG4Qt5VkmnoV-61" style="rounded=0;orthogonalLoop=1;jettySize=auto;html=1;exitX=0.5;exitY=1;exitDx=0;exitDy=0;entryX=0.5;entryY=0;entryDx=0;entryDy=0;" edge="1" parent="1" source="BI5MkdXVmG4Qt5VkmnoV-55" target="BI5MkdXVmG4Qt5VkmnoV-59">
          <mxGeometry relative="1" as="geometry" />
        </mxCell>
        <mxCell id="BI5MkdXVmG4Qt5VkmnoV-55" value="X&amp;gt;50" style="ellipse;whiteSpace=wrap;html=1;" vertex="1" parent="1">
          <mxGeometry x="440" y="640" width="40" height="40" as="geometry" />
        </mxCell>
        <mxCell id="BI5MkdXVmG4Qt5VkmnoV-64" style="rounded=0;orthogonalLoop=1;jettySize=auto;html=1;exitX=0.5;exitY=1;exitDx=0;exitDy=0;entryX=0.5;entryY=0;entryDx=0;entryDy=0;" edge="1" parent="1" source="BI5MkdXVmG4Qt5VkmnoV-58" target="BI5MkdXVmG4Qt5VkmnoV-62">
          <mxGeometry relative="1" as="geometry" />
        </mxCell>
        <mxCell id="BI5MkdXVmG4Qt5VkmnoV-58" value="&lt;font style=&quot;font-size: 10px;&quot;&gt;Médio&lt;/font&gt;" style="ellipse;whiteSpace=wrap;html=1;" vertex="1" parent="1">
          <mxGeometry x="400" y="720" width="40" height="40" as="geometry" />
        </mxCell>
        <mxCell id="BI5MkdXVmG4Qt5VkmnoV-65" style="rounded=0;orthogonalLoop=1;jettySize=auto;html=1;exitX=0.5;exitY=1;exitDx=0;exitDy=0;entryX=1;entryY=0;entryDx=0;entryDy=0;" edge="1" parent="1" source="BI5MkdXVmG4Qt5VkmnoV-59" target="BI5MkdXVmG4Qt5VkmnoV-62">
          <mxGeometry relative="1" as="geometry" />
        </mxCell>
        <mxCell id="BI5MkdXVmG4Qt5VkmnoV-59" value="Baixo" style="ellipse;whiteSpace=wrap;html=1;" vertex="1" parent="1">
          <mxGeometry x="480" y="720" width="40" height="40" as="geometry" />
        </mxCell>
        <mxCell id="BI5MkdXVmG4Qt5VkmnoV-62" value="Fim" style="ellipse;whiteSpace=wrap;html=1;" vertex="1" parent="1">
          <mxGeometry x="400" y="800" width="40" height="40" as="geometry" />
        </mxCell>
        <mxCell id="BI5MkdXVmG4Qt5VkmnoV-67" value="def verificar(n):&amp;nbsp;&lt;div&gt;&lt;span style=&quot;white-space: pre;&quot;&gt;&#x9;&lt;/span&gt;if n &amp;gt; 0:&amp;nbsp;&lt;/div&gt;&lt;div&gt;&lt;span style=&quot;white-space: pre;&quot;&gt;&#x9;&lt;/span&gt;&lt;span style=&quot;white-space: pre;&quot;&gt;&#x9;&lt;/span&gt;if n % 2 == 0:&amp;nbsp;&amp;nbsp;&lt;/div&gt;&lt;div&gt;&lt;span style=&quot;white-space: pre;&quot;&gt;&#x9;&lt;/span&gt;&lt;span style=&quot;white-space: pre;&quot;&gt;&#x9;&lt;/span&gt;&lt;span style=&quot;white-space: pre;&quot;&gt;&#x9;&lt;/span&gt;return &quot;Par positivo&quot;&amp;nbsp;&lt;/div&gt;&lt;div&gt;&lt;span style=&quot;white-space: pre;&quot;&gt;&#x9;&lt;/span&gt;&lt;span style=&quot;white-space: pre;&quot;&gt;&#x9;&lt;/span&gt;else:&amp;nbsp;&lt;/div&gt;&lt;div&gt;&lt;span style=&quot;white-space: pre;&quot;&gt;&#x9;&lt;/span&gt;&lt;span style=&quot;white-space: pre;&quot;&gt;&#x9;&lt;/span&gt;&lt;span style=&quot;white-space: pre;&quot;&gt;&#x9;&lt;/span&gt;return &quot;Ímpar positivo&quot;&amp;nbsp;&lt;/div&gt;&lt;div&gt;&lt;span style=&quot;white-space: pre;&quot;&gt;&#x9;&lt;/span&gt;elif n &amp;lt; 0:&amp;nbsp;&lt;/div&gt;&lt;div&gt;&lt;span style=&quot;white-space: pre;&quot;&gt;&#x9;&lt;/span&gt;&lt;span style=&quot;white-space: pre;&quot;&gt;&#x9;&lt;/span&gt;return &quot;Negativo&quot;&amp;nbsp;&lt;/div&gt;&lt;div&gt;&lt;span style=&quot;white-space: pre;&quot;&gt;&#x9;&lt;/span&gt;else:&amp;nbsp;&lt;/div&gt;&lt;div&gt;&lt;span style=&quot;white-space: pre;&quot;&gt;&#x9;&lt;/span&gt;&lt;span style=&quot;white-space: pre;&quot;&gt;&#x9;&lt;/span&gt;return &quot;Zero&quot;&lt;br&gt;&lt;/div&gt;" style="text;html=1;align=left;verticalAlign=middle;resizable=0;points=[];autosize=1;strokeColor=none;fillColor=none;" vertex="1" parent="1">
          <mxGeometry x="564" y="111" width="220" height="160" as="geometry" />
        </mxCell>
        <mxCell id="BI5MkdXVmG4Qt5VkmnoV-77" style="rounded=0;orthogonalLoop=1;jettySize=auto;html=1;entryX=0.5;entryY=0;entryDx=0;entryDy=0;" edge="1" parent="1" source="BI5MkdXVmG4Qt5VkmnoV-68" target="BI5MkdXVmG4Qt5VkmnoV-69">
          <mxGeometry relative="1" as="geometry" />
        </mxCell>
        <mxCell id="BI5MkdXVmG4Qt5VkmnoV-79" style="rounded=0;orthogonalLoop=1;jettySize=auto;html=1;entryX=0.5;entryY=0;entryDx=0;entryDy=0;" edge="1" parent="1" source="BI5MkdXVmG4Qt5VkmnoV-68" target="BI5MkdXVmG4Qt5VkmnoV-72">
          <mxGeometry relative="1" as="geometry" />
        </mxCell>
        <mxCell id="BI5MkdXVmG4Qt5VkmnoV-68" value="n&amp;gt;0" style="ellipse;whiteSpace=wrap;html=1;" vertex="1" parent="1">
          <mxGeometry x="360" y="120" width="40" height="40" as="geometry" />
        </mxCell>
        <mxCell id="BI5MkdXVmG4Qt5VkmnoV-80" style="rounded=0;orthogonalLoop=1;jettySize=auto;html=1;entryX=0.5;entryY=0;entryDx=0;entryDy=0;" edge="1" parent="1" source="BI5MkdXVmG4Qt5VkmnoV-69" target="BI5MkdXVmG4Qt5VkmnoV-70">
          <mxGeometry relative="1" as="geometry" />
        </mxCell>
        <mxCell id="BI5MkdXVmG4Qt5VkmnoV-81" style="rounded=0;orthogonalLoop=1;jettySize=auto;html=1;entryX=0.5;entryY=0;entryDx=0;entryDy=0;" edge="1" parent="1" source="BI5MkdXVmG4Qt5VkmnoV-69" target="BI5MkdXVmG4Qt5VkmnoV-71">
          <mxGeometry relative="1" as="geometry" />
        </mxCell>
        <mxCell id="BI5MkdXVmG4Qt5VkmnoV-69" value="&lt;font style=&quot;font-size: 10px;&quot;&gt;n%2==0&lt;/font&gt;" style="ellipse;whiteSpace=wrap;html=1;" vertex="1" parent="1">
          <mxGeometry x="280" y="200" width="40" height="40" as="geometry" />
        </mxCell>
        <mxCell id="BI5MkdXVmG4Qt5VkmnoV-84" style="rounded=0;orthogonalLoop=1;jettySize=auto;html=1;entryX=0;entryY=0.5;entryDx=0;entryDy=0;" edge="1" parent="1" source="BI5MkdXVmG4Qt5VkmnoV-70" target="BI5MkdXVmG4Qt5VkmnoV-75">
          <mxGeometry relative="1" as="geometry" />
        </mxCell>
        <mxCell id="BI5MkdXVmG4Qt5VkmnoV-70" value="&lt;font style=&quot;font-size: 9px;&quot;&gt;Par positivo&lt;/font&gt;" style="ellipse;whiteSpace=wrap;html=1;" vertex="1" parent="1">
          <mxGeometry x="240" y="280" width="40" height="40" as="geometry" />
        </mxCell>
        <mxCell id="BI5MkdXVmG4Qt5VkmnoV-85" style="rounded=0;orthogonalLoop=1;jettySize=auto;html=1;entryX=0;entryY=0;entryDx=0;entryDy=0;" edge="1" parent="1" source="BI5MkdXVmG4Qt5VkmnoV-71" target="BI5MkdXVmG4Qt5VkmnoV-75">
          <mxGeometry relative="1" as="geometry" />
        </mxCell>
        <mxCell id="BI5MkdXVmG4Qt5VkmnoV-71" value="&lt;font style=&quot;font-size: 9px;&quot;&gt;Ímpar positivo&lt;/font&gt;" style="ellipse;whiteSpace=wrap;html=1;" vertex="1" parent="1">
          <mxGeometry x="320" y="280" width="40" height="40" as="geometry" />
        </mxCell>
        <mxCell id="BI5MkdXVmG4Qt5VkmnoV-82" style="rounded=0;orthogonalLoop=1;jettySize=auto;html=1;entryX=0.5;entryY=0;entryDx=0;entryDy=0;" edge="1" parent="1" source="BI5MkdXVmG4Qt5VkmnoV-72" target="BI5MkdXVmG4Qt5VkmnoV-73">
          <mxGeometry relative="1" as="geometry" />
        </mxCell>
        <mxCell id="BI5MkdXVmG4Qt5VkmnoV-83" style="rounded=0;orthogonalLoop=1;jettySize=auto;html=1;entryX=0.5;entryY=0;entryDx=0;entryDy=0;" edge="1" parent="1" source="BI5MkdXVmG4Qt5VkmnoV-72" target="BI5MkdXVmG4Qt5VkmnoV-74">
          <mxGeometry relative="1" as="geometry" />
        </mxCell>
        <mxCell id="BI5MkdXVmG4Qt5VkmnoV-72" value="n&amp;lt;0" style="ellipse;whiteSpace=wrap;html=1;" vertex="1" parent="1">
          <mxGeometry x="440" y="200" width="40" height="40" as="geometry" />
        </mxCell>
        <mxCell id="BI5MkdXVmG4Qt5VkmnoV-86" style="rounded=0;orthogonalLoop=1;jettySize=auto;html=1;entryX=1;entryY=0;entryDx=0;entryDy=0;" edge="1" parent="1" source="BI5MkdXVmG4Qt5VkmnoV-73" target="BI5MkdXVmG4Qt5VkmnoV-75">
          <mxGeometry relative="1" as="geometry" />
        </mxCell>
        <mxCell id="BI5MkdXVmG4Qt5VkmnoV-73" value="&lt;font style=&quot;font-size: 9px;&quot;&gt;Negativo&lt;/font&gt;" style="ellipse;whiteSpace=wrap;html=1;" vertex="1" parent="1">
          <mxGeometry x="400" y="280" width="40" height="40" as="geometry" />
        </mxCell>
        <mxCell id="BI5MkdXVmG4Qt5VkmnoV-87" style="rounded=0;orthogonalLoop=1;jettySize=auto;html=1;entryX=1;entryY=0.5;entryDx=0;entryDy=0;" edge="1" parent="1" source="BI5MkdXVmG4Qt5VkmnoV-74" target="BI5MkdXVmG4Qt5VkmnoV-75">
          <mxGeometry relative="1" as="geometry" />
        </mxCell>
        <mxCell id="BI5MkdXVmG4Qt5VkmnoV-74" value="Zero" style="ellipse;whiteSpace=wrap;html=1;" vertex="1" parent="1">
          <mxGeometry x="480" y="280" width="40" height="40" as="geometry" />
        </mxCell>
        <mxCell id="BI5MkdXVmG4Qt5VkmnoV-75" value="Fim" style="ellipse;whiteSpace=wrap;html=1;" vertex="1" parent="1">
          <mxGeometry x="360" y="360" width="40" height="40" as="geometry" />
        </mxCell>
        <mxCell id="BI5MkdXVmG4Qt5VkmnoV-90" value="V (G) = E − N + 2P" style="text;html=1;align=center;verticalAlign=middle;resizable=0;points=[];autosize=1;strokeColor=none;fillColor=none;" vertex="1" parent="1">
          <mxGeometry x="575" y="650" width="120" height="30" as="geometry" />
        </mxCell>
        <mxCell id="BI5MkdXVmG4Qt5VkmnoV-91" value="11 - 9 + 2 = 4" style="text;html=1;align=center;verticalAlign=middle;resizable=0;points=[];autosize=1;strokeColor=none;fillColor=none;" vertex="1" parent="1">
          <mxGeometry x="575" y="368" width="90" height="30" as="geometry" />
        </mxCell>
        <mxCell id="BI5MkdXVmG4Qt5VkmnoV-92" value="8 - 7 + 2 * 1 = 3" style="text;html=1;align=center;verticalAlign=middle;resizable=0;points=[];autosize=1;strokeColor=none;fillColor=none;" vertex="1" parent="1">
          <mxGeometry x="575" y="728" width="110" height="30" as="geometry" />
        </mxCell>
        <mxCell id="BI5MkdXVmG4Qt5VkmnoV-93" value="A" style="text;html=1;align=center;verticalAlign=middle;resizable=0;points=[];autosize=1;strokeColor=none;fillColor=none;" vertex="1" parent="1">
          <mxGeometry x="385" y="108" width="30" height="30" as="geometry" />
        </mxCell>
        <mxCell id="BI5MkdXVmG4Qt5VkmnoV-94" value="B" style="text;html=1;align=center;verticalAlign=middle;resizable=0;points=[];autosize=1;strokeColor=none;fillColor=none;" vertex="1" parent="1">
          <mxGeometry x="265" y="188" width="30" height="30" as="geometry" />
        </mxCell>
        <mxCell id="BI5MkdXVmG4Qt5VkmnoV-95" value="C" style="text;html=1;align=center;verticalAlign=middle;resizable=0;points=[];autosize=1;strokeColor=none;fillColor=none;" vertex="1" parent="1">
          <mxGeometry x="465" y="188" width="30" height="30" as="geometry" />
        </mxCell>
        <mxCell id="BI5MkdXVmG4Qt5VkmnoV-96" value="D" style="text;html=1;align=center;verticalAlign=middle;resizable=0;points=[];autosize=1;strokeColor=none;fillColor=none;" vertex="1" parent="1">
          <mxGeometry x="225" y="268" width="30" height="30" as="geometry" />
        </mxCell>
        <mxCell id="BI5MkdXVmG4Qt5VkmnoV-97" value="E" style="text;html=1;align=center;verticalAlign=middle;resizable=0;points=[];autosize=1;strokeColor=none;fillColor=none;" vertex="1" parent="1">
          <mxGeometry x="305" y="268" width="30" height="30" as="geometry" />
        </mxCell>
        <mxCell id="BI5MkdXVmG4Qt5VkmnoV-98" value="F" style="text;html=1;align=center;verticalAlign=middle;resizable=0;points=[];autosize=1;strokeColor=none;fillColor=none;" vertex="1" parent="1">
          <mxGeometry x="395" y="258" width="30" height="30" as="geometry" />
        </mxCell>
        <mxCell id="BI5MkdXVmG4Qt5VkmnoV-99" value="G" style="text;html=1;align=center;verticalAlign=middle;resizable=0;points=[];autosize=1;strokeColor=none;fillColor=none;" vertex="1" parent="1">
          <mxGeometry x="465" y="268" width="30" height="30" as="geometry" />
        </mxCell>
        <mxCell id="BI5MkdXVmG4Qt5VkmnoV-101" value="A" style="text;html=1;align=center;verticalAlign=middle;resizable=0;points=[];autosize=1;strokeColor=none;fillColor=none;" vertex="1" parent="1">
          <mxGeometry x="425" y="538" width="30" height="30" as="geometry" />
        </mxCell>
        <mxCell id="BI5MkdXVmG4Qt5VkmnoV-102" value="B" style="text;html=1;align=center;verticalAlign=middle;resizable=0;points=[];autosize=1;strokeColor=none;fillColor=none;" vertex="1" parent="1">
          <mxGeometry x="345" y="628" width="30" height="30" as="geometry" />
        </mxCell>
        <mxCell id="BI5MkdXVmG4Qt5VkmnoV-103" value="C" style="text;html=1;align=center;verticalAlign=middle;resizable=0;points=[];autosize=1;strokeColor=none;fillColor=none;" vertex="1" parent="1">
          <mxGeometry x="465" y="628" width="30" height="30" as="geometry" />
        </mxCell>
        <mxCell id="BI5MkdXVmG4Qt5VkmnoV-104" value="D" style="text;html=1;align=center;verticalAlign=middle;resizable=0;points=[];autosize=1;strokeColor=none;fillColor=none;" vertex="1" parent="1">
          <mxGeometry x="385" y="708" width="30" height="30" as="geometry" />
        </mxCell>
        <mxCell id="BI5MkdXVmG4Qt5VkmnoV-105" value="E" style="text;html=1;align=center;verticalAlign=middle;resizable=0;points=[];autosize=1;strokeColor=none;fillColor=none;" vertex="1" parent="1">
          <mxGeometry x="465" y="708" width="30" height="30" as="geometry" />
        </mxCell>
      </root>
    </mxGraphModel>
  </diagram>
</mxfile>
